<?xml version="1.0" standalone="no"?>
<!DOCTYPE svg PUBLIC "-//W3C//DTD SVG 20010904//EN"
 "http://www.w3.org/TR/2001/REC-SVG-20010904/DTD/svg10.dtd">
<svg version="1.0" xmlns="http://www.w3.org/2000/svg"
 width="10668.000000pt" height="5288.000000pt" viewBox="0 0 10668.000000 5288.000000"
 preserveAspectRatio="xMidYMid meet">

<g transform="translate(0.000000,5288.000000) scale(0.100000,-0.100000)"
fill="#000000" stroke="none">
<path d="M52145 50540 c-3228 -142 -6132 -1219 -8585 -3184 -416 -334 -748
-633 -1156 -1040 -518 -519 -914 -975 -1329 -1531 -511 -685 -900 -1320 -1289
-2105 -677 -1366 -1111 -2806 -1299 -4308 l-33 -263 -119 -40 c-228 -76 -407
-190 -575 -366 -148 -154 -250 -321 -314 -513 -60 -181 -71 -252 -71 -465 0
-213 11 -284 71 -465 64 -192 166 -359 314 -513 169 -177 345 -289 576 -366
112 -38 119 -42 122 -68 14 -141 59 -480 88 -663 246 -1568 759 -3061 1514
-4410 517 -923 1104 -1741 1814 -2530 160 -178 669 -689 866 -870 793 -728
1678 -1367 2625 -1894 323 -180 1165 -595 1285 -633 8 -3 -68 39 -170 92
-1584 832 -2937 1885 -4094 3185 -1565 1759 -2651 3913 -3105 6160 -103 513
-202 1210 -213 1508 l-3 74 75 19 c277 70 546 237 722 447 174 207 282 439
323 697 19 116 19 344 0 460 -31 190 -114 405 -216 556 -177 264 -436 461
-733 560 l-98 32 6 61 c14 119 105 644 151 861 646 3076 2434 5863 5002 7798
1864 1404 4103 2331 6408 2651 621 87 1121 124 1780 133 1259 17 2441 -123
3670 -434 4186 -1058 7589 -3998 9192 -7941 647 -1592 988 -3379 959 -5022 -8
-492 -28 -811 -82 -1290 -282 -2544 -1385 -5041 -3113 -7050 -671 -779 -1492
-1534 -2349 -2158 -2131 -1553 -4700 -2486 -7392 -2686 -200 -15 -563 -36
-627 -36 l-33 0 0 -117 0 -116 288 7 c654 15 1230 63 1837 152 1914 281 3756
951 5390 1961 72 44 198 122 280 173 722 448 1332 896 1925 1413 473 414 1022
972 1441 1467 1833 2164 2928 4792 3164 7595 36 435 40 548 40 1155 0 626 -5
751 -46 1205 -311 3462 -1994 6739 -4654 9060 -1718 1499 -3763 2579 -5955
3144 -921 238 -1831 377 -2890 441 -228 14 -1141 21 -1385 10z"/>
<path d="M52710 47367 l0 -2144 213 -7 c616 -20 1154 -82 1697 -197 2051 -433
3879 -1553 5175 -3169 1047 -1306 1684 -2868 1839 -4510 37 -389 47 -908 26
-1273 -114 -1907 -835 -3662 -2108 -5126 -156 -180 -519 -550 -707 -721 -732
-666 -1562 -1201 -2480 -1601 l-200 -87 -3 1609 -2 1609 -1723 2 -1722 3 -3
924 -2 924 -198 -7 c-591 -19 -1059 -28 -1688 -29 l-701 -2 23 -105 c37 -169
120 -496 179 -698 427 -1478 1179 -2816 2243 -3994 l142 -157 0 -2760 c0
-1519 3 -2761 8 -2761 4 0 102 11 217 25 1640 196 3116 596 4475 1211 276 125
870 422 1101 551 527 295 1013 611 1494 972 1121 841 1910 1627 2752 2742 804
1066 1364 2106 1836 3414 435 1205 669 2391 728 3690 15 334 6 1237 -15 1525
-84 1118 -271 2058 -615 3090 -536 1606 -1232 2862 -2325 4200 -685 838 -1359
1483 -2286 2187 -886 673 -1831 1219 -2925 1690 -1254 540 -2725 924 -4190
1092 -99 12 -197 23 -217 26 l-38 5 0 -2143z"/>
<path d="M52205 45204 c-22 -2 -110 -8 -195 -14 -312 -22 -662 -67 -983 -126
-2247 -414 -4235 -1640 -5587 -3446 -262 -349 -522 -763 -722 -1144 l-78 -152
42 -10 c129 -32 551 -118 813 -166 407 -74 1201 -196 1208 -185 1 2 25 56 51
119 67 157 231 495 323 665 576 1057 1392 2005 2413 2802 791 617 1768 1174
2720 1550 118 46 231 91 250 98 32 13 26 14 -90 13 -69 -1 -143 -3 -165 -4z"/>
<path d="M51985 44474 c-1588 -710 -2955 -1766 -3874 -2994 -149 -199 -376
-540 -497 -745 -95 -161 -314 -590 -382 -745 l-41 -95 57 -7 c523 -69 2370
-239 2454 -226 18 3 29 32 83 218 384 1328 987 2611 1810 3855 164 247 425
614 578 813 5 6 8 12 6 12 -2 -1 -89 -39 -194 -86z"/>
<path d="M52609 44310 c-221 -288 -479 -656 -694 -990 -729 -1135 -1296 -2348
-1639 -3513 l-54 -182 91 -7 c479 -35 2379 -120 2392 -106 3 2 4 1111 3 2464
l-3 2459 -96 -125z"/>
<path d="M44352 39677 c-407 -1028 -602 -2043 -602 -3138 0 -607 61 -1177 192
-1789 l30 -145 177 -34 c628 -120 1244 -212 1945 -291 148 -17 270 -29 272
-27 2 2 -10 52 -26 113 -84 310 -170 759 -215 1126 -48 394 -65 682 -65 1098
0 974 131 1846 411 2734 28 87 48 160 46 163 -3 2 -110 20 -238 39 -495 72
-1030 166 -1391 243 -277 60 -411 90 -435 101 -20 8 -25 -2 -101 -193z"/>
<path d="M46990 39371 c-33 -88 -144 -460 -189 -636 -329 -1298 -342 -2795
-35 -4085 27 -114 113 -438 118 -447 5 -8 907 -71 1316 -93 500 -26 1319 -54
1327 -46 3 3 -11 121 -31 263 -113 813 -164 1680 -153 2593 9 745 68 1299 213
2023 25 126 45 230 43 232 -2 2 -98 10 -214 19 -841 66 -1665 146 -2307 224
l-67 8 -21 -55z"/>
<path d="M50096 39124 c-11 -36 -74 -340 -100 -479 -124 -676 -170 -1192 -168
-1915 1 -973 71 -1915 193 -2614 l12 -69 911 6 c833 5 1473 18 1684 33 l82 6
0 2463 0 2463 -102 6 c-57 3 -245 10 -418 16 -522 17 -1104 46 -1976 96 -104
6 -112 6 -118 -12z"/>
<path d="M44125 34049 c14 -62 136 -411 211 -601 227 -576 503 -1102 847
-1618 1475 -2208 3901 -3651 6592 -3919 252 -25 908 -60 894 -47 -2 2 -90 38
-196 79 -271 107 -497 208 -808 362 -1296 640 -2442 1485 -3331 2458 -774 846
-1364 1797 -1741 2808 l-66 175 -171 18 c-437 43 -1012 116 -1439 182 -201 31
-674 111 -766 130 l-33 7 7 -34z"/>
<path d="M47060 33692 c0 -5 31 -85 69 -178 399 -978 974 -1839 1766 -2643
706 -716 1468 -1294 2411 -1827 180 -101 663 -354 677 -354 4 0 -48 66 -115
148 -1087 1306 -1816 2800 -2193 4492 l-52 235 -29 6 c-16 4 -94 7 -174 8
-477 4 -1985 80 -2307 117 -30 3 -53 1 -53 -4z"/>
<path d="M36397 16207 l-257 -232 135 -3 135 -3 298 227 c163 125 301 231 307
236 5 4 -74 8 -175 8 l-185 0 -258 -233z"/>
<path d="M62725 16420 c-91 -13 -170 -68 -221 -155 -26 -45 -64 -180 -64 -227
l0 -29 83 3 c79 3 82 4 85 28 14 118 99 210 193 210 42 0 97 -31 181 -101 40
-34 99 -79 131 -100 168 -109 386 -57 473 113 29 58 54 149 54 200 l0 38 -80
0 c-60 0 -80 -3 -80 -13 0 -37 -34 -121 -62 -153 -40 -46 -77 -64 -128 -64
-58 0 -92 18 -196 105 -144 121 -248 162 -369 145z"/>
<path d="M39052 15769 c-295 -22 -507 -110 -659 -272 -103 -111 -158 -245
-169 -412 -15 -238 78 -435 265 -559 132 -88 262 -136 623 -227 289 -73 397
-107 500 -161 223 -116 303 -328 201 -538 -57 -116 -190 -209 -371 -257 -88
-24 -115 -26 -287 -27 -160 0 -205 3 -287 21 -223 50 -430 147 -564 265 -19
17 -36 29 -38 27 -21 -28 -106 -204 -104 -216 5 -26 134 -119 239 -173 317
-163 756 -214 1117 -129 258 60 450 195 541 380 118 239 89 534 -70 712 -127
142 -323 228 -774 338 -428 104 -592 187 -676 341 -33 61 -34 67 -34 173 0
104 2 114 33 177 59 120 168 207 322 256 106 34 187 45 335 45 223 0 414 -49
621 -157 59 -31 111 -53 115 -49 15 15 90 206 86 217 -8 19 -197 113 -294 146
-127 42 -262 69 -406 80 -67 5 -131 9 -142 8 -11 0 -66 -4 -123 -9z"/>
<path d="M36130 15755 c-561 -96 -970 -465 -1095 -988 -144 -603 93 -1200 597
-1499 417 -248 1000 -262 1441 -36 355 182 591 498 678 908 29 138 32 396 6
540 -21 112 -73 273 -118 362 -186 373 -548 635 -977 709 -134 22 -411 25
-532 4z m495 -255 c200 -39 380 -131 523 -265 110 -103 172 -186 233 -310 248
-505 91 -1117 -364 -1419 -427 -284 -1032 -236 -1407 110 -138 129 -257 330
-306 521 -53 203 -42 463 28 662 181 520 723 814 1293 701z"/>
<path d="M43200 15755 c-420 -72 -756 -292 -954 -625 -135 -228 -195 -479
-183 -774 27 -681 492 -1180 1185 -1271 396 -52 830 49 1107 257 l70 53 3 513
2 512 -135 0 -135 0 0 -448 0 -447 -68 -43 c-315 -194 -781 -215 -1130 -52
-266 125 -463 338 -562 608 -83 229 -87 512 -8 747 126 378 472 663 883 725
103 16 298 16 400 0 207 -31 413 -130 553 -264 l42 -41 92 93 92 92 -34 36
c-65 67 -192 155 -304 209 -204 99 -385 135 -666 134 -96 -1 -209 -7 -250 -14z"/>
<path d="M60400 15763 c-103 -16 -240 -50 -320 -80 -440 -162 -742 -521 -837
-990 -27 -133 -24 -434 4 -564 126 -567 543 -954 1121 -1040 45 -7 82 -17 82
-23 0 -6 -16 -71 -35 -143 -19 -73 -35 -134 -35 -136 0 -2 38 -7 85 -11 103
-7 155 -27 194 -72 82 -93 32 -233 -97 -270 -96 -28 -191 -13 -338 52 -10 4
-74 -114 -74 -136 0 -13 135 -69 194 -79 187 -34 386 15 475 115 51 58 71 118
71 213 0 127 -55 213 -170 265 -30 13 -74 27 -97 31 -24 4 -43 10 -43 13 0 12
38 154 42 156 2 1 59 8 128 14 314 30 571 137 770 321 l65 60 -92 92 -92 92
-57 -52 c-363 -332 -951 -362 -1385 -71 -86 58 -223 198 -284 289 -206 312
-237 744 -76 1086 52 112 110 195 200 288 219 227 491 339 821 339 293 0 495
-76 734 -276 l47 -39 90 89 89 89 -58 58 c-149 152 -387 266 -651 311 -88 15
-397 21 -471 9z"/>
<path d="M65670 15750 c-423 -75 -785 -339 -969 -708 -45 -89 -97 -250 -118
-362 -25 -141 -23 -402 5 -536 92 -431 340 -751 725 -934 428 -204 993 -180
1395 58 328 195 550 518 618 902 23 131 23 372 0 505 -101 563 -522 978 -1094
1076 -152 26 -413 25 -562 -1z m480 -242 c157 -21 348 -100 479 -198 407 -301
550 -856 345 -1342 -184 -437 -675 -704 -1171 -637 -469 63 -820 372 -935 824
-20 79 -23 114 -22 275 0 166 3 195 27 282 120 451 490 760 964 807 94 10 193
6 313 -11z"/>
<path d="M32500 14426 l0 -1326 140 0 140 0 2 418 3 417 485 6 c477 6 487 6
590 31 356 88 573 268 669 555 89 265 56 593 -81 804 -105 163 -279 290 -488
356 -25 8 -88 24 -140 35 -89 20 -131 21 -707 25 l-613 4 0 -1325z m1129 1074
c355 -37 574 -196 648 -471 21 -80 24 -280 4 -359 -55 -223 -228 -389 -469
-451 -133 -34 -242 -40 -642 -37 l-385 3 -3 650 c-1 358 0 656 3 663 6 15 692
17 844 2z"/>
<path d="M45230 14425 l0 -1325 140 0 140 0 0 420 0 420 450 2 c248 0 454 1
459 2 5 1 141 -183 301 -409 160 -225 297 -416 304 -423 9 -9 51 -12 164 -10
l152 3 -320 449 -320 449 79 32 c123 49 188 93 287 190 77 76 98 104 137 185
76 153 91 224 91 430 0 149 -4 187 -22 254 -84 306 -292 507 -622 602 -168 48
-259 54 -862 54 l-558 0 0 -1325z m1119 1075 c450 -47 689 -296 668 -700 -14
-270 -145 -458 -388 -554 -158 -62 -298 -75 -786 -76 l-333 0 0 670 0 670 369
0 c203 0 414 -5 470 -10z"/>
<path d="M48158 14442 c-329 -719 -600 -1315 -604 -1325 -6 -16 3 -17 141 -15
l148 3 157 350 157 350 738 0 738 0 157 -350 157 -350 151 -3 151 -3 -28 63
c-32 71 -1157 2531 -1174 2566 -10 21 -15 22 -151 22 l-141 0 -597 -1308z
m1068 274 c165 -369 299 -674 297 -678 -2 -5 -285 -8 -628 -8 -343 0 -626 3
-628 8 -2 4 138 324 312 711 l315 704 15 -33 c9 -18 151 -335 317 -704z"/>
<path d="M50690 14424 l0 -1325 673 4 c648 3 675 4 769 25 568 129 933 491
1034 1027 26 136 26 412 0 540 -94 476 -395 819 -849 970 -236 78 -317 85
-1029 85 l-598 0 0 -1326z m1340 1058 c256 -54 435 -148 592 -310 149 -154
225 -299 268 -513 25 -124 28 -323 6 -449 -73 -409 -367 -720 -781 -825 -156
-40 -238 -45 -702 -45 l-443 0 0 1086 0 1086 483 -5 c436 -4 491 -6 577 -25z"/>
<path d="M53800 14926 c0 -894 3 -959 55 -1142 51 -180 172 -380 287 -475 227
-188 557 -269 924 -228 446 49 746 297 859 709 48 175 48 176 52 1093 l4 867
-140 0 -140 0 -3 -877 -3 -878 -28 -100 c-100 -370 -334 -554 -727 -572 -392
-17 -669 142 -786 453 -14 38 -35 107 -47 154 -20 82 -21 112 -24 953 l-4 867
-139 0 -140 0 0 -824z"/>
<path d="M57557 15743 c-5 -8 -1195 -2607 -1204 -2630 -4 -10 28 -13 143 -13
l149 0 94 213 c52 116 124 276 159 355 l65 142 735 -2 736 -3 71 -155 c38 -86
110 -244 159 -353 l88 -197 149 0 c82 0 149 1 149 3 0 1 -272 596 -604 1322
l-603 1320 -141 3 c-77 1 -143 -1 -145 -5z m462 -1005 c171 -384 311 -700 311
-703 0 -3 -284 -5 -631 -5 -611 0 -631 1 -626 19 11 44 623 1399 628 1393 4
-4 146 -321 318 -704z"/>
<path d="M62892 15733 c-20 -37 -1202 -2622 -1202 -2628 0 -3 66 -4 147 -3
l147 3 157 350 157 350 739 3 740 2 158 -355 159 -355 148 0 c81 0 148 3 148
8 -1 4 -272 599 -603 1322 l-603 1315 -142 3 c-127 2 -142 1 -150 -15z m463
-983 c169 -377 310 -693 312 -702 5 -17 -30 -18 -626 -18 -498 0 -631 3 -631
13 0 21 625 1406 631 1399 4 -4 145 -315 314 -692z"/>
<path d="M68970 14425 l0 -1325 940 0 940 0 0 120 0 120 -800 0 -800 0 2 493
3 492 688 3 687 2 0 115 0 115 -687 2 -688 3 0 470 0 470 768 3 767 2 0 120 0
120 -910 0 -910 0 0 -1325z"/>
<path d="M71510 14425 l0 -1325 135 0 135 0 2 1045 3 1046 516 -878 517 -878
68 -3 69 -3 507 868 c279 478 514 877 522 888 14 18 15 -97 16 -1032 l0 -1053
135 0 135 0 0 1325 0 1325 -118 0 -119 0 -569 -980 c-430 -741 -571 -977 -579
-966 -5 7 -264 448 -575 979 l-565 966 -117 1 -118 0 0 -1325z"/>
<path d="M40600 14125 l0 -115 500 0 500 0 0 115 0 115 -500 0 -500 0 0 -115z"/>
<path d="M12660 11659 c-283 -309 -534 -583 -558 -610 l-44 -49 489 0 488 1
360 315 c198 173 365 312 372 310 6 -3 172 -145 367 -316 l356 -310 486 2 486
3 -557 608 -558 607 -586 0 -586 0 -515 -561z"/>
<path d="M75750 11618 c-311 -331 -566 -606 -568 -610 -2 -4 230 -8 515 -8
l519 0 749 596 c413 327 757 602 765 610 12 12 -79 14 -700 14 l-715 0 -565
-602z"/>
<path d="M5122 10609 c-707 -43 -1368 -289 -1884 -701 -134 -107 -333 -306
-437 -437 -347 -437 -545 -911 -628 -1501 -25 -181 -25 -652 0 -840 95 -705
386 -1297 863 -1761 506 -491 1155 -781 1944 -870 147 -17 618 -17 770 0 734
80 1303 318 1782 746 100 89 280 283 276 297 -4 10 -869 808 -877 808 -4 0
-49 -43 -101 -96 -186 -188 -345 -307 -549 -409 -592 -297 -1385 -248 -1936
119 -520 347 -805 908 -805 1586 0 948 576 1674 1470 1854 454 91 900 36 1290
-159 189 -95 345 -210 518 -382 l113 -113 440 406 c241 224 439 410 439 414 0
18 -265 281 -365 363 -227 187 -537 365 -810 466 -459 171 -977 242 -1513 210z"/>
<path d="M26657 10609 c-710 -42 -1362 -282 -1879 -690 -122 -97 -356 -329
-452 -449 -281 -351 -485 -787 -580 -1236 -54 -256 -61 -336 -61 -684 0 -291
2 -341 24 -480 161 -1068 804 -1898 1796 -2320 771 -328 1772 -357 2583 -75
375 131 715 331 987 584 84 78 266 274 262 282 -4 11 -861 800 -874 806 -7 3
-51 -36 -99 -87 -428 -449 -987 -659 -1600 -599 -263 25 -486 88 -709 199
-538 268 -887 771 -971 1399 -18 137 -20 418 -4 546 100 805 605 1387 1369
1579 306 78 686 81 976 10 352 -87 655 -263 930 -541 l102 -103 441 407 441
407 -22 30 c-40 58 -272 283 -373 363 -604 478 -1401 706 -2287 652z"/>
<path d="M41455 10610 c-1339 -61 -2188 -703 -2265 -1710 -42 -553 151 -1018
548 -1318 325 -247 708 -395 1504 -582 451 -106 610 -147 770 -201 320 -106
503 -232 582 -399 26 -55 31 -80 34 -161 7 -162 -36 -270 -153 -386 -117 -115
-304 -196 -545 -237 -719 -120 -1630 84 -2290 515 -58 37 -108 65 -111 61 -20
-21 -460 -1016 -455 -1028 7 -17 169 -124 291 -191 845 -465 2193 -623 3142
-368 250 68 536 192 718 312 523 346 799 875 771 1478 -27 599 -302 1007 -872
1293 -288 144 -600 242 -1278 398 -747 172 -1013 273 -1172 446 -216 234 -143
600 158 795 194 125 464 185 838 186 201 0 312 -10 510 -44 346 -60 732 -199
1073 -385 37 -20 69 -35 71 -33 8 11 416 1026 416 1036 0 6 -35 31 -77 56
-389 223 -894 379 -1435 442 -123 14 -513 36 -583 33 -16 -1 -102 -4 -190 -8z"/>
<path d="M49980 10609 c-486 -28 -940 -145 -1355 -349 -447 -220 -784 -496
-1071 -876 -290 -385 -475 -835 -555 -1349 -27 -175 -38 -620 -20 -802 71
-703 349 -1321 811 -1797 433 -446 1000 -748 1655 -880 680 -138 1454 -80
2157 160 330 113 648 271 905 450 l93 65 0 1204 0 1205 -625 0 -625 0 0 -865
0 -865 -77 -39 c-294 -146 -601 -214 -978 -215 -277 -1 -451 24 -685 99 -447
144 -823 456 -1029 855 -156 302 -223 584 -223 940 0 1006 627 1734 1617 1876
161 23 469 23 625 1 451 -66 820 -252 1167 -590 l63 -61 22 21 c220 199 854
787 856 794 6 14 -259 274 -358 353 -611 485 -1444 719 -2370 665z"/>
<path d="M62173 10609 c-1201 -73 -2206 -702 -2688 -1683 -156 -318 -240 -597
-292 -966 -13 -95 -17 -193 -17 -410 0 -305 10 -413 60 -658 87 -423 273 -837
528 -1175 522 -693 1318 -1119 2276 -1219 183 -19 620 -16 800 6 726 87 1320
339 1820 772 458 396 774 924 919 1536 64 264 75 380 75 738 0 352 -9 445 -69
715 -183 816 -702 1507 -1440 1920 -453 253 -939 390 -1510 425 -188 11 -267
11 -462 -1z m407 -1169 c443 -38 826 -205 1120 -487 385 -368 570 -828 570
-1411 0 -350 -70 -653 -217 -931 -303 -579 -864 -925 -1553 -957 -329 -16
-650 51 -945 197 -646 319 -1018 982 -992 1769 11 334 78 598 219 871 265 510
758 853 1343 934 184 25 293 29 455 15z"/>
<path d="M81305 10610 c-759 -36 -1359 -252 -1762 -633 -245 -232 -398 -509
-475 -859 -20 -92 -23 -130 -23 -358 0 -244 2 -260 29 -375 87 -374 276 -645
602 -864 331 -223 666 -344 1499 -540 422 -100 567 -139 720 -191 294 -102
472 -228 548 -387 31 -65 32 -73 32 -193 0 -124 0 -126 -38 -204 -95 -199
-322 -333 -657 -390 -608 -102 -1362 28 -1990 343 -143 72 -235 125 -339 198
-35 24 -67 41 -71 36 -11 -11 -460 -1010 -460 -1022 0 -25 209 -156 400 -251
776 -388 1900 -536 2795 -369 754 141 1308 509 1572 1044 207 418 216 987 24
1391 -202 423 -603 708 -1285 914 -197 59 -354 99 -730 186 -513 118 -720 179
-904 265 -268 125 -392 282 -392 494 1 236 162 448 423 556 309 128 811 149
1282 54 314 -63 706 -208 974 -358 46 -26 86 -47 90 -47 7 0 421 1019 421
1037 0 15 -130 90 -280 161 -557 264 -1289 396 -2005 362z"/>
<path d="M90172 10610 c-483 -32 -909 -144 -1317 -345 -316 -156 -564 -332
-800 -569 -495 -496 -779 -1119 -846 -1855 -17 -193 -7 -585 21 -766 81 -540
269 -988 589 -1410 97 -129 377 -409 506 -506 362 -275 741 -457 1180 -568
616 -155 1329 -144 1935 30 439 126 804 325 1137 620 99 88 278 280 278 299 0
9 -852 799 -871 806 -6 3 -57 -43 -115 -102 -179 -182 -353 -309 -561 -409
-740 -356 -1701 -184 -2236 401 -240 262 -386 568 -459 964 -25 136 -25 564 0
700 102 548 356 951 776 1232 497 332 1211 409 1784 192 257 -98 481 -247 699
-467 l107 -107 440 406 c403 373 439 409 429 428 -6 11 -79 88 -162 171 -424
425 -946 688 -1595 804 -256 47 -652 68 -919 51z"/>
<path d="M102080 10609 c-490 -22 -916 -121 -1268 -294 -369 -182 -621 -411
-797 -725 -151 -269 -214 -549 -202 -897 9 -265 55 -456 159 -654 140 -269
366 -478 698 -648 340 -173 485 -218 1548 -476 511 -123 752 -225 903 -382 76
-78 103 -126 125 -220 38 -162 -17 -332 -148 -460 -185 -180 -497 -266 -968
-267 -307 0 -544 29 -845 105 -387 98 -819 289 -1078 477 -26 19 -50 32 -52
30 -14 -14 -465 -1025 -461 -1034 8 -21 210 -148 350 -220 802 -414 1963 -568
2886 -384 342 68 657 189 900 345 268 171 501 426 628 686 101 208 150 413
159 664 7 198 -6 327 -47 490 -138 549 -563 907 -1370 1155 -163 50 -383 106
-790 200 -168 39 -363 87 -434 106 -465 128 -694 270 -777 482 -18 46 -22 77
-22 157 0 168 55 289 186 411 325 301 1134 346 1877 104 170 -56 351 -131 529
-221 96 -49 176 -87 178 -86 5 6 423 1040 421 1042 -31 21 -148 85 -233 128
-365 181 -809 306 -1290 362 -124 14 -509 37 -575 33 -14 0 -99 -4 -190 -9z"/>
<path d="M8730 7550 l0 -2970 685 0 685 0 0 2970 0 2970 -685 0 -685 0 0
-2970z"/>
<path d="M11520 7550 l0 -2970 2295 0 2295 0 0 550 0 550 -1615 0 -1615 0 0
690 0 690 1375 0 1375 0 0 535 0 535 -1375 0 -1375 0 0 645 0 645 1560 0 1560
0 0 550 0 550 -2240 0 -2240 0 0 -2970z"/>
<path d="M17200 7550 l0 -2970 680 0 680 0 2 1795 3 1795 1474 -1795 1474
-1795 564 0 563 0 0 2970 0 2970 -675 0 -675 0 0 -1795 c0 -987 -3 -1795 -7
-1795 -5 1 -669 808 -1477 1795 l-1468 1795 -569 0 -569 0 0 -2970z"/>
<path d="M30260 7550 l0 -2970 685 0 685 0 0 2970 0 2970 -685 0 -685 0 0
-2970z"/>
<path d="M33595 7578 c-720 -1618 -1315 -2954 -1322 -2970 l-12 -28 706 2 706
3 262 635 262 635 1375 3 1375 2 263 -640 264 -640 723 0 722 0 -32 73 c-18
39 -615 1376 -1327 2969 l-1295 2898 -680 0 -680 -1 -1310 -2941z m2456 442
c253 -612 458 -1114 456 -1116 -2 -2 -423 -3 -934 -2 l-931 3 466 1127 c292
704 470 1122 475 1113 4 -7 214 -514 468 -1125z"/>
<path d="M53870 7550 l0 -2970 2300 0 2300 0 0 550 0 550 -1615 0 -1615 0 0
690 0 690 1375 0 1375 0 0 535 0 535 -1375 0 -1375 0 0 645 0 645 1560 0 1560
0 0 550 0 550 -2245 0 -2245 0 0 -2970z"/>
<path d="M66690 7550 l0 -2970 1388 0 c1372 0 1610 5 1859 35 931 114 1694
521 2169 1157 284 380 458 819 529 1338 23 162 31 544 16 722 -61 714 -328
1315 -791 1778 -479 479 -1142 778 -1936 874 -243 30 -564 36 -1901 36 l-1333
0 0 -2970z m3003 1817 c171 -30 286 -57 406 -99 746 -256 1171 -880 1171
-1716 0 -86 -5 -197 -10 -247 -90 -804 -595 -1363 -1391 -1539 -233 -52 -314
-56 -1086 -56 l-713 0 0 1841 0 1840 763 -4 c656 -3 776 -6 860 -20z"/>
<path d="M73700 7550 l0 -2970 2295 0 2295 0 0 550 0 550 -1612 2 -1613 3 0
685 0 685 1378 3 1377 2 0 535 0 535 -1380 0 -1380 0 2 643 3 642 1558 3 1557
2 0 550 0 550 -2240 0 -2240 0 0 -2970z"/>
<path d="M84790 7550 l0 -2970 685 0 685 0 0 2970 0 2970 -685 0 -685 0 0
-2970z"/>
<path d="M95511 10478 c-10 -24 -602 -1352 -1316 -2953 -713 -1600 -1300
-2918 -1302 -2927 -5 -17 33 -18 698 -18 l704 0 182 443 c100 243 219 531 264
640 l81 197 1375 -2 1375 -3 262 -635 262 -635 723 -3 c577 -2 722 0 718 10
-3 7 -600 1344 -1327 2971 l-1323 2957 -679 0 -679 0 -18 -42z m1159 -2450
l465 -1123 -929 -3 c-511 -1 -931 0 -934 3 -6 6 920 2245 928 2245 3 0 215
-505 470 -1122z"/>
</g>
</svg>
